<?xml version="1.0" standalone="no"?>
<!DOCTYPE svg PUBLIC "-//W3C//DTD SVG 20010904//EN"
 "http://www.w3.org/TR/2001/REC-SVG-20010904/DTD/svg10.dtd">
<svg version="1.0" xmlns="http://www.w3.org/2000/svg"
 width="1158.000000pt" height="1280.000000pt" viewBox="0 0 1158.000000 1280.000000"
 preserveAspectRatio="xMidYMid meet">
<metadata>
Created by potrace 1.15, written by Peter Selinger 2001-2017
</metadata>
<g transform="translate(0.000000,1280.000000) scale(0.100000,-0.100000)"
fill="#000000" stroke="none">
<path d="M7990 10993 c-118 -7 -394 -54 -432 -74 -9 -5 -27 -9 -40 -9 -14 0
-43 -9 -66 -20 -22 -11 -46 -20 -51 -20 -33 0 -333 -143 -372 -176 -8 -8 -21
-14 -28 -14 -6 0 -36 -18 -66 -40 -30 -22 -61 -40 -69 -40 -9 0 -37 -19 -64
-42 -27 -24 -85 -72 -128 -108 -118 -98 -265 -250 -375 -390 -54 -69 -111
-140 -126 -159 -33 -41 -83 -119 -83 -130 0 -4 -9 -16 -20 -26 -11 -10 -20
-23 -20 -30 0 -7 -9 -20 -20 -30 -11 -10 -20 -23 -20 -29 0 -7 -9 -18 -20 -26
-11 -8 -20 -21 -20 -30 0 -20 -82 -185 -105 -210 -10 -11 -22 -20 -28 -20 -14
0 -44 42 -81 112 -56 108 -98 182 -111 198 -6 8 -23 35 -36 60 -30 56 -52 90
-109 164 -25 32 -52 69 -61 83 -37 55 -229 270 -314 351 -94 90 -349 289 -420
327 -22 11 -58 32 -80 46 -50 31 -196 102 -250 122 -22 8 -67 25 -100 37 -33
12 -64 26 -70 31 -5 5 -22 9 -37 9 -16 0 -36 4 -46 9 -33 16 -89 31 -120 31
-17 0 -33 4 -36 9 -17 27 -620 37 -756 12 -41 -7 -97 -15 -125 -18 -27 -3 -54
-9 -60 -14 -5 -5 -19 -9 -31 -9 -13 0 -26 -4 -29 -10 -3 -5 -19 -10 -35 -10
-16 0 -45 -9 -65 -20 -20 -11 -43 -20 -52 -20 -17 0 -327 -153 -353 -174 -8
-6 -35 -22 -60 -34 -25 -13 -67 -40 -94 -60 -27 -20 -56 -42 -65 -47 -62 -39
-87 -61 -178 -152 -56 -56 -113 -120 -127 -141 -13 -21 -38 -49 -55 -62 -17
-14 -31 -33 -31 -42 0 -10 -4 -18 -8 -18 -4 0 -16 -15 -27 -32 -10 -18 -33
-51 -52 -72 -18 -22 -33 -44 -33 -50 0 -5 -7 -18 -16 -28 -17 -18 -47 -70 -84
-148 -54 -111 -90 -190 -90 -197 0 -4 -9 -26 -19 -48 -10 -22 -24 -58 -29 -80
-6 -22 -22 -74 -35 -115 -40 -119 -67 -214 -67 -237 0 -12 -4 -25 -10 -28 -5
-3 -10 -26 -10 -50 0 -24 -4 -47 -10 -50 -5 -3 -10 -30 -10 -59 0 -28 -4 -56
-9 -61 -5 -6 -12 -35 -15 -65 -12 -127 -28 -310 -31 -375 -12 -234 -8 -682 6
-690 5 -4 9 -36 9 -73 0 -37 5 -98 11 -137 6 -38 10 -87 10 -107 0 -21 4 -38
9 -38 6 0 10 -21 10 -47 0 -50 17 -155 31 -188 4 -11 11 -51 14 -90 4 -38 11
-74 15 -80 8 -10 14 -40 26 -130 4 -27 10 -54 14 -60 4 -5 13 -38 20 -72 7
-35 17 -63 21 -63 5 0 9 -14 9 -31 0 -17 9 -51 19 -77 11 -26 22 -64 25 -85 2
-21 12 -52 20 -69 9 -17 16 -41 16 -53 0 -24 19 -87 29 -95 4 -3 11 -23 18
-45 13 -49 31 -100 48 -140 7 -16 16 -45 19 -64 4 -19 12 -42 19 -50 7 -9 19
-38 26 -66 6 -27 16 -52 20 -55 5 -3 14 -23 21 -45 7 -22 16 -44 21 -49 5 -6
9 -17 9 -26 0 -9 9 -33 20 -55 11 -22 20 -47 20 -56 0 -9 9 -28 20 -42 11 -14
20 -32 20 -40 0 -8 7 -20 15 -27 9 -7 20 -32 26 -57 6 -24 15 -46 20 -49 5 -3
9 -13 9 -23 0 -10 9 -29 19 -43 11 -13 23 -36 26 -51 4 -14 13 -31 21 -38 8
-6 14 -22 14 -35 0 -12 4 -25 10 -29 8 -5 31 -50 79 -155 6 -14 20 -38 31 -55
28 -43 56 -94 75 -137 10 -21 21 -38 26 -38 5 0 9 -6 9 -14 0 -7 9 -25 20 -39
11 -14 20 -34 20 -45 0 -10 9 -27 20 -37 11 -10 20 -26 20 -36 0 -10 7 -22 16
-27 16 -9 32 -34 58 -88 9 -17 22 -34 31 -37 8 -4 15 -11 15 -17 0 -12 88
-123 101 -128 5 -2 9 -9 9 -14 0 -6 18 -35 40 -64 22 -29 40 -57 40 -62 0 -4
19 -31 43 -58 23 -28 58 -70 77 -93 19 -24 40 -49 47 -56 7 -7 15 -25 19 -39
3 -15 15 -33 25 -39 11 -7 19 -17 19 -24 0 -7 4 -13 8 -13 10 0 72 -54 72 -63
0 -7 28 -40 100 -119 30 -33 64 -74 77 -91 13 -17 30 -35 38 -40 8 -4 15 -15
15 -22 0 -8 7 -15 15 -15 9 0 19 -10 24 -22 5 -13 21 -34 36 -48 15 -14 33
-40 40 -57 8 -18 19 -33 24 -33 6 0 11 -6 11 -14 0 -7 9 -16 20 -19 11 -3 20
-12 20 -21 0 -9 5 -16 12 -16 12 0 218 -208 218 -221 0 -4 9 -9 20 -12 11 -3
20 -12 20 -21 0 -9 6 -16 13 -16 7 0 49 -35 94 -77 145 -139 246 -228 265
-235 10 -4 18 -14 18 -23 0 -8 4 -15 9 -15 11 0 141 -127 141 -139 0 -5 9 -11
20 -14 11 -3 20 -12 20 -21 0 -9 6 -16 13 -16 8 0 22 -9 32 -20 10 -11 22 -20
28 -20 12 0 98 -72 158 -132 25 -27 49 -48 53 -48 10 0 89 -62 99 -77 4 -7 12
-13 17 -13 12 0 56 -44 63 -64 4 -9 13 -16 22 -16 8 0 15 -3 15 -8 0 -4 12
-13 28 -20 15 -6 47 -30 72 -53 25 -22 62 -55 84 -72 21 -18 55 -46 75 -62 62
-52 120 -95 126 -95 4 0 23 -16 43 -35 20 -19 42 -35 49 -35 7 0 17 -9 23 -20
6 -11 16 -20 21 -20 6 0 33 -18 59 -40 26 -22 52 -40 56 -40 5 0 15 -9 22 -20
7 -11 17 -20 23 -20 6 0 34 -18 61 -40 28 -22 55 -40 59 -40 5 0 9 -6 9 -12 1
-7 24 -24 53 -38 29 -13 59 -30 67 -37 80 -69 126 -103 137 -103 7 0 13 -9 13
-20 0 -26 30 -26 37 0 3 10 13 22 23 25 10 3 21 12 23 19 3 8 19 17 36 21 17
4 31 13 31 20 0 8 9 17 20 20 11 3 20 11 20 16 0 5 8 12 18 16 9 3 38 24 63
45 26 21 52 38 58 38 6 0 11 4 11 10 0 5 19 19 43 30 47 22 117 81 117 99 0 6
8 11 18 11 18 0 62 31 91 63 8 9 21 17 27 17 7 0 26 11 42 25 17 14 33 25 37
25 4 0 20 13 36 29 17 19 40 31 61 33 25 2 34 8 36 25 2 12 24 40 50 63 26 23
54 48 63 56 9 7 20 14 25 14 6 0 37 25 70 55 32 30 62 55 66 55 3 0 24 18 46
40 21 22 44 40 50 40 7 0 12 7 12 15 0 9 7 18 16 22 9 3 33 21 53 39 20 19 39
34 43 34 4 0 18 10 32 23 13 12 38 33 55 47 17 14 31 30 31 37 0 7 9 13 20 13
11 0 20 7 20 15 0 9 8 19 19 23 19 7 98 75 206 177 35 33 78 71 94 85 17 14
31 30 31 37 0 7 8 13 19 13 10 0 21 9 24 20 3 11 10 19 16 18 16 -4 631 614
631 634 0 10 5 18 11 18 14 0 69 55 69 69 0 6 9 11 20 11 13 0 20 7 20 20 0
11 4 20 10 20 12 0 55 44 64 65 3 10 12 15 21 11 11 -4 15 2 15 19 0 15 13 37
36 57 20 18 40 43 45 56 5 12 15 22 24 22 8 0 15 9 15 20 0 13 7 20 20 20 13
0 20 7 20 20 0 11 7 20 15 20 8 0 15 7 15 15 0 9 17 34 38 58 21 23 42 50 45
59 4 10 13 18 22 18 8 0 15 6 15 14 0 8 14 30 30 48 17 18 36 45 43 61 6 15
15 27 19 27 4 0 15 15 24 33 9 17 25 38 36 45 10 7 25 28 34 45 9 18 23 36 30
40 8 4 14 14 14 21 0 7 9 21 20 31 11 10 20 25 20 34 0 9 9 22 20 29 11 7 20
18 20 26 0 7 9 21 20 31 11 10 20 26 20 37 0 10 6 18 13 18 6 0 25 27 41 60
16 33 33 60 38 60 5 0 16 16 24 35 8 19 19 35 24 35 6 0 10 7 10 16 0 9 9 27
20 41 11 14 20 33 20 42 0 9 9 22 20 29 11 7 20 20 20 29 0 9 7 24 16 34 17
19 174 327 174 341 0 6 9 21 20 35 11 14 20 38 20 53 0 15 6 33 14 39 8 7 18
27 22 44 3 18 15 44 25 59 11 14 19 30 19 35 0 4 16 40 35 78 19 39 35 79 35
90 0 11 6 30 14 41 8 11 19 40 26 64 7 24 18 53 26 64 8 11 14 30 14 41 0 11
9 34 20 50 11 17 20 40 20 52 0 13 9 37 20 55 11 18 20 42 20 54 0 11 9 39 20
62 11 22 20 53 20 67 0 14 6 36 14 48 8 12 17 38 21 57 4 19 11 40 16 46 5 6
14 38 20 70 6 33 15 64 20 70 5 6 12 33 16 60 3 27 14 65 25 84 10 19 18 55
18 81 0 31 5 49 14 52 8 3 16 30 21 74 4 37 15 99 26 138 10 38 19 88 19 111
0 23 7 57 15 76 8 19 17 77 21 129 4 52 11 104 15 117 5 12 13 87 19 165 6 78
15 180 20 227 20 168 22 389 6 575 -9 99 -21 234 -26 300 -6 66 -15 124 -20
129 -6 6 -10 33 -10 61 0 27 -9 82 -20 120 -11 38 -20 84 -20 100 0 17 -9 47
-20 68 -11 20 -20 54 -20 75 0 20 -9 54 -20 75 -11 20 -20 44 -20 52 0 9 -6
26 -14 38 -8 12 -27 58 -42 102 -14 44 -39 104 -55 132 -15 29 -32 68 -39 87
-6 19 -18 40 -26 46 -7 7 -14 20 -14 29 0 9 -9 27 -20 41 -11 14 -20 33 -20
43 0 9 -4 17 -10 17 -5 0 -10 9 -10 20 0 11 -4 20 -10 20 -5 0 -10 6 -10 13 0
7 -13 26 -30 42 -16 15 -27 31 -25 35 3 4 -3 14 -12 21 -9 8 -33 36 -53 64
-71 96 -267 293 -360 362 -41 31 -92 69 -112 85 -20 15 -40 28 -43 28 -4 0
-20 14 -35 30 -15 17 -35 30 -44 30 -9 0 -16 3 -16 8 0 4 -15 13 -32 20 -18 7
-55 23 -83 36 -162 77 -302 133 -355 143 -14 2 -34 8 -45 13 -11 4 -33 13 -48
19 -15 6 -41 11 -57 11 -16 0 -32 5 -35 10 -3 6 -21 10 -39 10 -17 0 -36 4
-41 9 -9 9 -388 19 -485 14z m-1340 -9153 c0 -5 -4 -10 -10 -10 -5 0 -10 5
-10 10 0 6 5 10 10 10 6 0 10 -4 10 -10z"/>
<path d="M10391 7795 c0 -38 2 -46 10 -33 6 11 6 29 0 50 -9 32 -9 31 -10 -17z"/>
<path d="M5915 1280 c3 -5 8 -10 11 -10 2 0 4 5 4 10 0 6 -5 10 -11 10 -5 0
-7 -4 -4 -10z"/>
</g>
</svg>
