<?xml version="1.0" standalone="no"?>
<!DOCTYPE svg PUBLIC "-//W3C//DTD SVG 20010904//EN"
 "http://www.w3.org/TR/2001/REC-SVG-20010904/DTD/svg10.dtd">
<svg version="1.0" xmlns="http://www.w3.org/2000/svg"
 width="1280.000000pt" height="1280.000000pt" viewBox="0 0 1280.000000 1280.000000"
 preserveAspectRatio="xMidYMid meet">
<metadata>
Created by potrace 1.15, written by Peter Selinger 2001-2017
</metadata>
<g transform="translate(0.000000,1280.000000) scale(0.100000,-0.100000)"
fill="#000000" stroke="none">
<path d="M6225 12632 c-279 -273 -458 -384 -735 -453 -84 -21 -118 -24 -295
-23 -176 0 -216 3 -335 27 -179 35 -383 92 -653 181 -793 263 -1009 311 -1407
310 -228 0 -329 -10 -528 -50 -783 -158 -1470 -674 -1838 -1379 -289 -553
-378 -1141 -263 -1735 47 -238 68 -315 234 -820 190 -582 235 -774 242 -1050
4 -152 2 -189 -17 -280 -61 -300 -174 -491 -464 -787 l-169 -173 174 -178
c184 -187 259 -283 334 -424 63 -118 100 -224 126 -359 19 -100 21 -136 16
-289 -8 -253 -57 -473 -197 -900 -216 -653 -275 -871 -312 -1150 -16 -124 -16
-467 0 -600 76 -607 346 -1163 772 -1590 446 -445 1033 -720 1659 -775 208
-19 270 -19 462 0 283 27 502 81 1064 265 616 202 829 250 1099 250 233 0 404
-41 597 -142 141 -73 253 -161 441 -347 l168 -164 177 174 c247 241 401 345
621 419 148 49 253 63 447 57 281 -8 450 -48 1065 -248 557 -183 776 -237
1059 -264 192 -19 254 -19 462 0 338 30 631 112 944 265 817 399 1381 1197
1487 2106 16 138 16 460 0 584 -34 264 -93 490 -262 1006 -213 651 -257 856
-247 1159 8 229 51 385 162 579 72 127 148 221 323 398 l166 168 -165 167
c-185 188 -275 303 -348 443 -64 125 -95 214 -122 352 -18 97 -21 136 -16 283
8 280 49 453 251 1072 180 549 233 763 262 1057 57 567 -99 1185 -424 1682
-438 669 -1131 1101 -1932 1205 -126 17 -500 17 -615 1 -295 -43 -492 -96
-1120 -303 -287 -94 -454 -141 -635 -176 -119 -24 -159 -27 -340 -27 -198 0
-209 1 -322 31 -265 71 -459 197 -743 482 -71 72 -132 131 -135 131 -3 0 -82
-76 -175 -168z"/>
</g>
</svg>
